<svg width="456" height="68" viewBox="0 0 456 68" fill="none" xmlns="http://www.w3.org/2000/svg">
<path d="M443.756 51.1293C442.348 51.1293 440.854 50.916 439.276 50.4893C437.74 50.0626 436.566 49.5293 435.756 48.8893C435.457 48.6333 435.329 48.2493 435.372 47.7373L436.78 39.3533C436.865 38.7986 437.121 38.5213 437.548 38.5213C438.017 38.5213 438.252 38.82 438.252 39.4173L438.38 42.4893C438.465 44.9213 439.041 46.7133 440.108 47.8653C441.217 48.9746 442.561 49.5293 444.14 49.5293C445.505 49.5293 446.678 49.1026 447.66 48.2493C448.641 47.3533 449.132 46.052 449.132 44.3453C449.132 43.364 448.982 42.468 448.684 41.6573C448.385 40.804 447.916 39.908 447.276 38.9693C446.636 37.988 445.761 36.8146 444.652 35.4493C443.201 33.572 442.113 31.972 441.388 30.6493C440.705 29.284 440.364 27.876 440.364 26.4253C440.364 23.7373 441.196 21.5826 442.86 19.9613C444.566 18.34 446.721 17.5293 449.324 17.5293C450.476 17.5293 451.585 17.7 452.652 18.0413C453.761 18.3826 454.678 18.8946 455.404 19.5773C455.788 19.876 455.916 20.26 455.788 20.7293L453.996 29.3053C453.868 29.86 453.612 30.1373 453.228 30.1373C452.844 30.1373 452.609 29.8386 452.524 29.2413L452.332 26.1693C452.161 23.6093 451.82 21.7746 451.308 20.6653C450.838 19.556 449.836 19.0013 448.3 19.0013C446.934 19.0013 445.825 19.4706 444.972 20.4093C444.118 21.348 443.692 22.4786 443.692 23.8013C443.692 25.2093 444.076 26.5106 444.844 27.7053C445.612 28.8573 446.657 30.3293 447.98 32.1213C449.729 34.4253 450.902 36.26 451.5 37.6253C452.14 38.9906 452.46 40.3773 452.46 41.7853C452.46 43.5773 452.054 45.1773 451.244 46.5853C450.476 47.9933 449.43 49.1026 448.108 49.9133C446.785 50.724 445.334 51.1293 443.756 51.1293Z" fill="black"/>
<path d="M419.394 51.128C417.943 51.128 416.642 50.744 415.49 49.976C414.38 49.1653 413.591 47.9707 413.122 46.392C412.695 44.7707 412.759 42.7653 413.314 40.376L420.482 9.592C420.695 8.824 420.695 8.29067 420.482 7.992C420.311 7.69333 419.927 7.52267 419.33 7.48L417.41 7.288C416.77 7.24533 416.492 6.968 416.578 6.456C416.663 6.072 416.962 5.83733 417.474 5.752C419.01 5.496 420.375 5.19733 421.57 4.856C422.764 4.472 423.724 3.98133 424.45 3.384C424.791 3.128 425.111 3 425.41 3C425.922 3 426.114 3.32 425.986 3.96L420.162 29.112C420.119 29.4107 420.183 29.5813 420.354 29.624C420.524 29.6667 420.674 29.56 420.802 29.304C423.148 24.824 425.239 21.752 427.074 20.088C428.951 18.3813 430.7 17.528 432.322 17.528C433.9 17.528 435.138 18.1893 436.034 19.512C436.972 20.8347 437.442 22.776 437.442 25.336C437.442 27.768 437.079 30.2213 436.354 32.696C435.671 35.128 434.711 37.4533 433.474 39.672C432.279 41.8907 430.892 43.8533 429.314 45.56C427.778 47.2667 426.156 48.632 424.45 49.656C422.743 50.6373 421.058 51.128 419.394 51.128ZM419.586 49.528C420.695 49.528 421.868 49.0373 423.106 48.056C424.343 47.032 425.538 45.688 426.69 44.024C427.884 42.3173 428.951 40.4187 429.89 38.328C430.828 36.1947 431.575 34.0187 432.13 31.8C432.684 29.5387 432.962 27.3627 432.962 25.272C432.962 23.6507 432.791 22.52 432.45 21.88C432.108 21.1973 431.511 20.856 430.658 20.856C429.719 20.856 428.652 21.432 427.458 22.584C426.263 23.736 425.047 25.272 423.81 27.192C422.572 29.0693 421.42 31.1173 420.354 33.336C419.287 35.5547 418.434 37.752 417.794 39.928C417.154 42.0613 416.834 43.96 416.834 45.624C416.834 48.2267 417.751 49.528 419.586 49.528Z" fill="black"/>
<path d="M395.965 51.1293C393.32 51.1293 391.229 50.0413 389.693 47.8653C388.157 45.6466 387.389 42.66 387.389 38.9053C387.389 36.132 387.837 33.4653 388.733 30.9053C389.629 28.3453 390.803 26.0626 392.253 24.0573C393.747 22.052 395.389 20.4733 397.181 19.3213C399.016 18.1266 400.85 17.5293 402.685 17.5293C405.33 17.5293 407.421 18.6173 408.957 20.7933C410.493 22.9693 411.261 25.956 411.261 29.7533C411.261 32.5266 410.813 35.1933 409.917 37.7533C409.021 40.3133 407.826 42.596 406.333 44.6013C404.882 46.6066 403.24 48.2066 401.405 49.4013C399.613 50.5533 397.8 51.1293 395.965 51.1293ZM395.837 49.5933C397.202 49.5933 398.525 48.932 399.805 47.6093C401.128 46.2866 402.322 44.5373 403.389 42.3613C404.456 40.1853 405.309 37.7746 405.949 35.1293C406.589 32.4413 406.909 29.7533 406.909 27.0653C406.909 21.732 405.523 19.0653 402.749 19.0653C401.427 19.0653 400.104 19.7266 398.781 21.0493C397.458 22.3293 396.264 24.0573 395.197 26.2333C394.173 28.4093 393.341 30.8413 392.701 33.5293C392.061 36.1746 391.741 38.8413 391.741 41.5293C391.741 46.9053 393.106 49.5933 395.837 49.5933Z" fill="black"/>
<path d="M367.271 64.3127C366.076 64.3127 365.116 63.9927 364.391 63.3527C363.623 62.7127 363.239 61.8807 363.239 60.8567C363.239 60.0033 363.495 59.2353 364.007 58.5527C364.519 57.87 365.223 57.5287 366.119 57.5287C366.887 57.5287 367.42 57.742 367.719 58.1687C368.017 58.5953 368.231 59.086 368.359 59.6407C368.444 60.1953 368.593 60.686 368.807 61.1127C368.977 61.5393 369.34 61.7527 369.895 61.7527C370.705 61.7527 371.452 61.2833 372.135 60.3447C372.775 59.406 373.287 58.0833 373.671 56.3767L384.679 8.69666C384.892 7.80066 384.892 7.20332 384.679 6.90466C384.465 6.60599 383.932 6.37132 383.079 6.20066L381.799 5.94466C381.244 5.81666 380.967 5.58199 380.967 5.24066C380.967 4.72866 381.351 4.47266 382.119 4.47266H393.511C394.108 4.47266 394.407 4.68599 394.407 5.11266C394.407 5.58199 393.98 5.88065 393.127 6.00866L391.847 6.20066C390.908 6.32866 390.268 6.56332 389.927 6.90466C389.585 7.20332 389.308 7.80066 389.095 8.69666L380.071 47.7367C378.876 52.8567 377.127 56.8887 374.823 59.8327C372.561 62.8193 370.044 64.3127 367.271 64.3127Z" fill="black"/>
<path d="M356.273 21.2965H361.139V12.5254H367.591V21.2965H373.419V26.1065H367.591V41.7247C367.591 42.4038 367.609 42.9885 367.647 43.479C367.723 43.9694 367.855 44.3844 368.043 44.7239C368.27 45.0634 368.59 45.3275 369.005 45.5161C369.42 45.667 369.986 45.7425 370.703 45.7425C371.156 45.7425 371.608 45.7425 372.061 45.7425C372.514 45.7047 372.966 45.6293 373.419 45.5161V50.4958C372.702 50.5713 372.004 50.6467 371.325 50.7222C370.646 50.7976 369.948 50.8354 369.232 50.8354C367.534 50.8354 366.157 50.6845 365.101 50.3827C364.082 50.0431 363.271 49.5716 362.667 48.968C362.102 48.3266 361.705 47.5344 361.479 46.5913C361.29 45.6482 361.177 44.573 361.139 43.3658V26.1065H356.273V21.2965Z" fill="black"/>
<path d="M349.558 33.3493C349.483 32.3308 349.256 31.3499 348.879 30.4068C348.539 29.4636 348.049 28.6526 347.408 27.9735C346.804 27.2567 346.05 26.6908 345.144 26.2759C344.277 25.8232 343.296 25.5968 342.202 25.5968C341.07 25.5968 340.032 25.8043 339.089 26.2193C338.184 26.5965 337.392 27.1435 336.713 27.8603C336.071 28.5394 335.543 29.3505 335.128 30.2936C334.751 31.2367 334.543 32.2553 334.506 33.3493H349.558ZM334.506 37.5934C334.506 38.7252 334.657 39.8192 334.958 40.8755C335.298 41.9318 335.788 42.8561 336.43 43.6483C337.071 44.4406 337.882 45.0819 338.863 45.5723C339.844 46.025 341.013 46.2514 342.371 46.2514C344.258 46.2514 345.767 45.8553 346.898 45.063C348.068 44.2331 348.936 43.007 349.501 41.3848H355.613C355.273 42.9693 354.689 44.384 353.859 45.6289C353.029 46.8738 352.029 47.9302 350.86 48.7978C349.69 49.6278 348.37 50.2503 346.898 50.6652C345.465 51.1179 343.956 51.3443 342.371 51.3443C340.07 51.3443 338.033 50.967 336.26 50.2125C334.487 49.458 332.978 48.4017 331.733 47.0436C330.526 45.6855 329.601 44.0633 328.96 42.1771C328.356 40.2908 328.055 38.2159 328.055 35.9524C328.055 33.8775 328.375 31.9158 329.017 30.0673C329.696 28.181 330.639 26.5399 331.846 25.1441C333.091 23.7105 334.581 22.5788 336.317 21.7488C338.052 20.9189 340.014 20.5039 342.202 20.5039C344.503 20.5039 346.559 20.9943 348.37 21.9752C350.218 22.9183 351.746 24.1821 352.953 25.7666C354.161 27.351 355.028 29.1807 355.556 31.2556C356.122 33.2928 356.273 35.4054 356.009 37.5934H334.506Z" fill="black"/>
<path d="M306.69 41.1585C306.878 43.0447 307.595 44.3651 308.84 45.1196C310.085 45.8741 311.575 46.2514 313.311 46.2514C313.914 46.2514 314.593 46.2137 315.348 46.1382C316.14 46.025 316.876 45.8364 317.555 45.5723C318.234 45.3083 318.781 44.931 319.196 44.4406C319.648 43.9124 319.856 43.2334 319.818 42.4034C319.78 41.5735 319.479 40.8944 318.913 40.3662C318.347 39.8381 317.611 39.4231 316.706 39.1213C315.838 38.7818 314.838 38.4988 313.707 38.2725C312.575 38.0461 311.424 37.8009 310.255 37.5368C309.048 37.2728 307.878 36.9521 306.746 36.5749C305.652 36.1976 304.653 35.6883 303.747 35.047C302.88 34.4057 302.182 33.5946 301.653 32.6137C301.125 31.5951 300.861 30.3502 300.861 28.8789C300.861 27.2944 301.238 25.9741 301.993 24.9178C302.785 23.8237 303.766 22.956 304.936 22.3147C306.143 21.6357 307.463 21.1641 308.897 20.9C310.368 20.6359 311.764 20.5039 313.084 20.5039C314.593 20.5039 316.027 20.6737 317.385 21.0132C318.781 21.315 320.026 21.8243 321.12 22.5411C322.251 23.2578 323.176 24.201 323.893 25.3705C324.647 26.5022 325.119 27.8792 325.307 29.5014H318.573C318.271 27.9546 317.555 26.9172 316.423 26.389C315.329 25.8609 314.065 25.5968 312.632 25.5968C312.179 25.5968 311.632 25.6345 310.99 25.71C310.387 25.7854 309.802 25.9363 309.236 26.1627C308.708 26.3513 308.255 26.6531 307.878 27.0681C307.501 27.4453 307.312 27.9546 307.312 28.596C307.312 29.3882 307.576 30.0295 308.104 30.52C308.67 31.0104 309.387 31.4254 310.255 31.7649C311.16 32.0667 312.179 32.3308 313.311 32.5571C314.442 32.7835 315.612 33.0287 316.819 33.2928C317.988 33.5568 319.139 33.8775 320.271 34.2548C321.403 34.632 322.402 35.1413 323.27 35.7826C324.175 36.424 324.892 37.235 325.42 38.2159C325.986 39.1968 326.269 40.404 326.269 41.8375C326.269 43.5729 325.873 45.0442 325.081 46.2514C324.289 47.4586 323.251 48.4394 321.969 49.194C320.724 49.9485 319.328 50.4955 317.781 50.835C316.234 51.1745 314.706 51.3443 313.197 51.3443C311.349 51.3443 309.632 51.1368 308.048 50.7218C306.501 50.3068 305.143 49.6844 303.974 48.8544C302.842 47.9867 301.936 46.9304 301.257 45.6855C300.616 44.4028 300.276 42.8938 300.239 41.1585H306.69Z" fill="black"/>
<path d="M279.043 41.1585C279.232 43.0447 279.949 44.3651 281.194 45.1196C282.439 45.8741 283.929 46.2514 285.664 46.2514C286.268 46.2514 286.947 46.2137 287.701 46.1382C288.493 46.025 289.229 45.8364 289.908 45.5723C290.587 45.3083 291.134 44.931 291.549 44.4406C292.002 43.9124 292.209 43.2334 292.172 42.4034C292.134 41.5735 291.832 40.8944 291.266 40.3662C290.7 39.8381 289.965 39.4231 289.059 39.1213C288.192 38.7818 287.192 38.4988 286.06 38.2725C284.928 38.0461 283.778 37.8009 282.608 37.5368C281.401 37.2728 280.232 36.9521 279.1 36.5749C278.006 36.1976 277.006 35.6883 276.101 35.047C275.233 34.4057 274.535 33.5946 274.007 32.6137C273.479 31.5951 273.215 30.3502 273.215 28.8789C273.215 27.2944 273.592 25.9741 274.347 24.9178C275.139 23.8237 276.12 22.956 277.289 22.3147C278.496 21.6357 279.817 21.1641 281.25 20.9C282.722 20.6359 284.117 20.5039 285.438 20.5039C286.947 20.5039 288.38 20.6737 289.738 21.0132C291.134 21.315 292.379 21.8243 293.473 22.5411C294.605 23.2578 295.529 24.201 296.246 25.3705C297.001 26.5022 297.472 27.8792 297.661 29.5014H290.927C290.625 27.9546 289.908 26.9172 288.776 26.389C287.682 25.8609 286.419 25.5968 284.985 25.5968C284.532 25.5968 283.985 25.6345 283.344 25.71C282.74 25.7854 282.156 25.9363 281.59 26.1627C281.062 26.3513 280.609 26.6531 280.232 27.0681C279.854 27.4453 279.666 27.9546 279.666 28.596C279.666 29.3882 279.93 30.0295 280.458 30.52C281.024 31.0104 281.741 31.4254 282.608 31.7649C283.514 32.0667 284.532 32.3308 285.664 32.5571C286.796 32.7835 287.965 33.0287 289.173 33.2928C290.342 33.5568 291.493 33.8775 292.624 34.2548C293.756 34.632 294.756 35.1413 295.624 35.7826C296.529 36.424 297.246 37.235 297.774 38.2159C298.34 39.1968 298.623 40.404 298.623 41.8375C298.623 43.5729 298.227 45.0442 297.434 46.2514C296.642 47.4586 295.605 48.4394 294.322 49.194C293.077 49.9485 291.681 50.4955 290.135 50.835C288.588 51.1745 287.06 51.3443 285.551 51.3443C283.702 51.3443 281.986 51.1368 280.401 50.7218C278.855 50.3068 277.497 49.6844 276.327 48.8544C275.195 47.9867 274.29 46.9304 273.611 45.6855C272.97 44.4028 272.63 42.8938 272.592 41.1585H279.043Z" fill="black"/>
<path d="M249.844 10.1484H257.371L272.932 50.5522H265.35L261.558 39.8571H245.431L241.639 50.5522H234.339L249.844 10.1484ZM247.355 34.4812H259.691L253.636 17.1087H253.466L247.355 34.4812Z" fill="black"/>
<path d="M226.349 10.1484H232.8V50.5522H226.349V10.1484Z" fill="black"/>
<path d="M220.935 44.0445C220.935 44.8367 221.029 45.4026 221.218 45.7421C221.444 46.0816 221.859 46.2514 222.463 46.2514C222.652 46.2514 222.878 46.2514 223.142 46.2514C223.406 46.2514 223.708 46.2137 224.047 46.1382V50.6086C223.821 50.6841 223.519 50.7595 223.142 50.835C222.803 50.9482 222.444 51.0425 222.067 51.1179C221.69 51.1934 221.312 51.25 220.935 51.2877C220.558 51.3254 220.237 51.3443 219.973 51.3443C218.653 51.3443 217.559 51.0802 216.691 50.5521C215.823 50.0239 215.258 49.0996 214.993 47.7793C213.711 49.0242 212.126 49.9296 210.24 50.4955C208.391 51.0614 206.6 51.3443 204.864 51.3443C203.544 51.3443 202.28 51.1557 201.073 50.7784C199.866 50.4389 198.79 49.9296 197.847 49.2505C196.942 48.5338 196.206 47.6472 195.64 46.5909C195.112 45.4969 194.848 44.2331 194.848 42.7995C194.848 40.9887 195.169 39.5174 195.81 38.3857C196.489 37.2539 197.357 36.3674 198.413 35.726C199.507 35.0847 200.714 34.632 202.035 34.3679C203.393 34.0661 204.751 33.8398 206.109 33.6889C207.279 33.4625 208.392 33.3116 209.448 33.2362C210.504 33.123 211.428 32.9532 212.221 32.7269C213.051 32.5005 213.692 32.161 214.145 31.7083C214.635 31.2179 214.88 30.5011 214.88 29.558C214.88 28.728 214.673 28.049 214.258 27.5208C213.881 26.9926 213.39 26.5965 212.786 26.3325C212.221 26.0307 211.579 25.842 210.863 25.7666C210.146 25.6534 209.467 25.5968 208.825 25.5968C207.015 25.5968 205.524 25.9741 204.355 26.7286C203.185 27.4831 202.525 28.6526 202.374 30.237H195.923C196.036 28.3508 196.489 26.7852 197.281 25.5402C198.074 24.2953 199.073 23.2956 200.281 22.5411C201.526 21.7866 202.921 21.2584 204.468 20.9566C206.015 20.6548 207.599 20.5039 209.221 20.5039C210.655 20.5039 212.07 20.6548 213.466 20.9566C214.861 21.2584 216.106 21.7488 217.2 22.4279C218.332 23.1069 219.238 23.9935 219.917 25.0875C220.596 26.1438 220.935 27.4453 220.935 28.9921V44.0445ZM214.484 35.8958C213.503 36.5371 212.296 36.9332 210.863 37.0841C209.429 37.1973 207.995 37.3859 206.562 37.65C205.883 37.7632 205.223 37.933 204.581 38.1593C203.94 38.3479 203.374 38.6309 202.884 39.0081C202.393 39.3477 201.997 39.8192 201.695 40.4228C201.431 40.9887 201.299 41.6866 201.299 42.5166C201.299 43.2334 201.507 43.837 201.922 44.3274C202.337 44.8178 202.827 45.2139 203.393 45.5157C203.997 45.7798 204.638 45.9684 205.317 46.0816C206.034 46.1948 206.675 46.2514 207.241 46.2514C207.958 46.2514 208.731 46.1571 209.561 45.9684C210.391 45.7798 211.164 45.4591 211.881 45.0064C212.636 44.5537 213.258 43.9879 213.748 43.3088C214.239 42.592 214.484 41.7244 214.484 40.7058V35.8958Z" fill="black"/>
<path d="M176.343 21.2965H181.21V12.5254H187.661V21.2965H193.489V26.1065H187.661V41.7247C187.661 42.4038 187.68 42.9885 187.717 43.479C187.793 43.9694 187.925 44.3844 188.114 44.7239C188.34 45.0634 188.661 45.3275 189.076 45.5161C189.491 45.667 190.056 45.7425 190.773 45.7425C191.226 45.7425 191.679 45.7425 192.131 45.7425C192.584 45.7047 193.037 45.6293 193.489 45.5161V50.4958C192.773 50.5713 192.075 50.6467 191.396 50.7222C190.717 50.7976 190.019 50.8354 189.302 50.8354C187.604 50.8354 186.227 50.6845 185.171 50.3827C184.152 50.0431 183.341 49.5716 182.738 48.968C182.172 48.3266 181.776 47.5344 181.549 46.5913C181.361 45.6482 181.248 44.573 181.21 43.3658V26.1065H176.343V21.2965Z" fill="black"/>
<path d="M167.504 10.1484H173.955V16.2599H167.504V10.1484ZM167.504 21.2962H173.955V50.5522H167.504V21.2962Z" fill="black"/>
<path d="M162.537 49.0242C162.537 53.438 161.292 56.7201 158.802 58.8705C156.35 61.0585 152.804 62.1526 148.164 62.1526C146.692 62.1526 145.202 62.0017 143.693 61.6999C142.222 61.3981 140.864 60.8888 139.619 60.172C138.412 59.4552 137.393 58.5121 136.563 57.3426C135.733 56.1731 135.243 54.7396 135.092 53.0419H141.543C141.731 53.9473 142.052 54.683 142.505 55.2489C142.958 55.8147 143.486 56.2486 144.089 56.5504C144.731 56.8899 145.429 57.0974 146.183 57.1728C146.938 57.286 147.73 57.3426 148.56 57.3426C151.163 57.3426 153.068 56.7013 154.275 55.4186C155.482 54.136 156.086 52.2874 156.086 49.873V45.4026H155.973C155.067 47.0248 153.822 48.2885 152.238 49.194C150.691 50.0994 149.012 50.5521 147.202 50.5521C144.863 50.5521 142.863 50.1559 141.203 49.3637C139.581 48.5338 138.223 47.4209 137.129 46.025C136.073 44.5915 135.299 42.9504 134.809 41.1019C134.318 39.2534 134.073 37.2728 134.073 35.1602C134.073 33.1984 134.375 31.331 134.979 29.558C135.582 27.7849 136.45 26.2381 137.582 24.9178C138.713 23.5596 140.09 22.4845 141.713 21.6922C143.373 20.9 145.24 20.5039 147.315 20.5039C149.163 20.5039 150.861 20.9 152.408 21.6922C153.954 22.4468 155.143 23.654 155.973 25.3139H156.086V21.2961H162.537V49.0242ZM148.22 45.4592C149.654 45.4592 150.861 45.1762 151.842 44.6103C152.86 44.0067 153.672 43.2334 154.275 42.2902C154.916 41.3094 155.369 40.2153 155.633 39.0081C155.935 37.7632 156.086 36.5183 156.086 35.2733C156.086 34.0284 155.935 32.8212 155.633 31.6517C155.331 30.4822 154.86 29.4448 154.219 28.5394C153.615 27.634 152.804 26.9172 151.785 26.389C150.804 25.8609 149.616 25.5968 148.22 25.5968C146.787 25.5968 145.579 25.8986 144.599 26.5022C143.618 27.1058 142.825 27.8981 142.222 28.8789C141.618 29.822 141.184 30.9161 140.92 32.161C140.656 33.3682 140.524 34.5754 140.524 35.7826C140.524 36.9898 140.675 38.1782 140.977 39.3477C141.279 40.4794 141.731 41.498 142.335 42.4034C142.976 43.3088 143.769 44.0445 144.712 44.6103C145.693 45.1762 146.862 45.4592 148.22 45.4592Z" fill="black"/>
<path d="M123.706 10.1484H130.157V16.2599H123.706V10.1484ZM123.706 21.2962H130.157V50.5522H123.706V21.2962Z" fill="black"/>
<path d="M85.3008 10.1484H102.051C105.144 10.1484 107.823 10.6766 110.086 11.7329C112.35 12.7892 114.198 14.2416 115.632 16.0902C117.065 17.901 118.122 20.0324 118.801 22.4846C119.518 24.9367 119.876 27.5586 119.876 30.3503C119.876 33.142 119.518 35.7639 118.801 38.216C118.122 40.6682 117.065 42.8185 115.632 44.667C114.198 46.4778 112.35 47.9114 110.086 48.9677C107.823 50.024 105.144 50.5522 102.051 50.5522H85.3008V10.1484ZM92.3743 44.7802H99.3346C102.089 44.7802 104.333 44.4218 106.069 43.705C107.842 42.9505 109.219 41.932 110.199 40.6493C111.218 39.3289 111.897 37.801 112.237 36.0657C112.614 34.2926 112.802 32.3875 112.802 30.3503C112.802 28.3131 112.614 26.4269 112.237 24.6915C111.897 22.9184 111.218 21.3906 110.199 20.1079C109.219 18.7875 107.842 17.7689 106.069 17.0522C104.333 16.2977 102.089 15.9204 99.3346 15.9204H92.3743V44.7802Z" fill="black"/>
<path d="M16.0002 43.9983L3.99934 31.9975L35.9997 0L68 32.0003L35.9997 64.0007L23.9988 51.9998L7.99866 68L0 59.9985L16.0002 43.9983ZM35.9997 48.0005L51.9998 32.0003L35.9997 16.0002L19.9995 32.0003L35.9997 48.0005Z" fill="black"/>
</svg>
